<svg width="60" height="60" viewBox="0 0 60 60" fill="none" xmlns="http://www.w3.org/2000/svg">
<path d="M30 55.0781C16.1719 55.0781 4.92188 43.8281 4.92188 30C4.92188 16.1719 16.1719 4.92188 30 4.92188C43.8281 4.92188 55.0781 16.1719 55.0781 30C55.0781 43.8281 43.8281 55.0781 30 55.0781ZM30 7.73438C17.7188 7.73438 7.73438 17.7188 7.73438 30C7.73438 42.2812 17.7188 52.2656 30 52.2656C42.2812 52.2656 52.2656 42.2812 52.2656 30C52.2656 17.7188 42.2812 7.73438 30 7.73438Z" fill="#6040EC"/>
<path d="M27.1293 38.8477C26.4262 38.8477 25.7465 38.5548 25.266 38.0509L18.7856 31.2657C18.2465 30.7032 18.27 29.8126 18.8325 29.2735C19.395 28.7345 20.2856 28.7579 20.8246 29.3204L27.1293 35.918L39.1293 21.6446C39.6332 21.047 40.5121 20.9766 41.1098 21.4688C41.7075 21.9727 41.7778 22.8516 41.2856 23.4493L29.1098 37.9337C28.641 38.4962 27.9496 38.8243 27.2231 38.8477C27.1879 38.8477 27.1645 38.8477 27.1293 38.8477Z" fill="#D2D6DB"/>
</svg>
