<svg width="98" height="98" viewBox="0 0 98 98" fill="none" xmlns="http://www.w3.org/2000/svg">
<path d="M65.3333 0H32.6667C14.6254 0 0 14.6254 0 32.6667V65.3333C0 83.3746 14.6254 98 32.6667 98H65.3333C83.3746 98 98 83.3746 98 65.3333V32.6667C98 14.6254 83.3746 0 65.3333 0Z" fill="url(#paint0_linear_180_739)"/>
<path fill-rule="evenodd" clip-rule="evenodd" d="M68.4985 34.2292C68.4993 34.1528 68.5001 34.0765 68.5001 34C68.5001 24.0589 60.4411 16 50.4998 16C42.6628 16 35.9953 21.0089 33.5243 28H49C52.3136 28 54.9998 30.6863 54.9998 34V37.0655C58.0309 35.125 61.634 34 65.5 34C66.5197 34 67.5213 34.0783 68.4985 34.2292ZM52.0001 82C45.3729 82 40 76.6272 40 70H49C52.3136 70 54.9998 67.3134 54.9998 64.0002V58.3782C60.1754 59.7102 64.0002 64.4081 64.0002 70C64.0002 76.6272 58.6273 82 52.0001 82ZM54.9998 55.3001C61.8255 56.6857 66.9681 62.7057 66.9998 69.9327C75.4095 69.175 82 62.1072 82 53.5C82 44.387 74.6129 37 65.5 37C61.5111 37 57.8527 38.4155 54.9998 40.7715V55.3001ZM16 64.0002V34C16 32.3432 17.3431 31 19 31H49C50.657 31 52.0001 32.3431 52.0001 34V64.0002C52.0001 65.6567 50.657 66.9998 49 66.9998H19C17.3431 66.9998 16 65.6567 16 64.0002ZM33.1569 38.5922C35.7677 38.264 38.7241 38.795 40.6181 39.3362L39.3819 43.6631C37.7759 43.2044 35.4823 42.8352 33.7182 43.0571C32.8382 43.1677 32.3287 43.3966 32.0772 43.6033C31.9222 43.7307 31.75 43.9246 31.75 44.4996C31.75 44.7117 31.8044 44.9979 32.4656 45.4793C33.1933 46.0098 34.2412 46.466 35.6112 47.0336L35.8196 47.1198C37.0174 47.6148 38.4812 48.22 39.6379 49.0186C40.9142 49.9001 42.2498 51.3199 42.2498 53.4995C42.2498 55.5555 41.528 57.2669 40.0264 58.3786C38.6634 59.3876 36.9816 59.6507 35.5562 59.6866C34.0901 59.7234 32.5468 59.5229 31.2055 59.3076C30.6224 59.2135 30.1009 59.1215 29.6233 59.0378C28.9116 58.9124 28.2962 58.8043 27.7209 58.7325L28.2791 54.2672C28.9432 54.3501 29.7674 54.4941 30.5819 54.6364C31.0409 54.7168 31.497 54.7964 31.9195 54.8645C33.2032 55.0703 34.4099 55.2139 35.4438 55.1879C36.5185 55.1611 37.0867 54.9561 37.3486 54.7618C37.4722 54.6702 37.75 54.4446 37.75 53.4995V53.493C37.7508 53.4158 37.7529 53.1856 37.0809 52.7216C36.3368 52.208 35.2807 51.7675 33.8888 51.1908L33.8576 51.178C32.6078 50.6603 31.0464 50.0135 29.8157 49.1167C28.5081 48.1639 27.25 46.6875 27.25 44.4996C27.25 42.6747 27.9528 41.1683 29.2197 40.1271C30.3901 39.1651 31.8493 38.7566 33.1569 38.5922Z" fill="#D2D6DB"/>
<defs>
<linearGradient id="paint0_linear_180_739" x1="0" y1="49" x2="98" y2="49" gradientUnits="userSpaceOnUse">
<stop stop-color="#ED6D6B"/>
<stop offset="1" stop-color="#F0B076"/>
</linearGradient>
</defs>
</svg>
