<svg width="41" height="34" viewBox="0 0 41 34" fill="none" xmlns="http://www.w3.org/2000/svg">
<path d="M40.8667 4.63687C39.3674 5.28854 37.7569 5.72707 36.0665 5.92487C37.7929 4.91287 39.1168 3.31054 39.7403 1.4C38.1266 2.33687 36.3375 3.01767 34.4324 3.38567C32.9081 1.7956 30.7367 0.802002 28.3334 0.802002C23.718 0.802002 19.9768 4.46514 19.9768 8.9808C19.9768 9.62174 20.052 10.2473 20.193 10.8438C13.248 10.5034 7.09097 7.2466 2.9675 2.297C2.24997 3.50527 1.83794 4.9098 1.83794 6.41094C1.83794 9.2476 3.31217 11.7515 5.55407 13.2174C4.1848 13.1745 2.89544 12.8065 1.769 12.1947C1.769 12.2299 1.769 12.2621 1.769 12.2974C1.769 16.2611 4.64854 19.5669 8.47277 20.3167C7.77247 20.5038 7.033 20.6035 6.27004 20.6035C5.73267 20.6035 5.20784 20.5513 4.69867 20.4578C5.76244 23.7069 8.84877 26.0729 12.5054 26.1388C9.6462 28.333 6.04287 29.6409 2.1262 29.6409C1.45254 29.6409 0.786703 29.6026 0.131836 29.5259C3.83074 31.8459 8.2221 33.1998 12.9425 33.1998C28.3146 33.1998 36.7182 20.7369 36.7182 9.9284C36.7182 9.5742 36.7104 9.22154 36.6947 8.8704C38.3287 7.7158 39.7466 6.276 40.8667 4.63687Z" fill="black"/>
</svg>
