<svg width="38" height="37" viewBox="0 0 38 37" fill="none" xmlns="http://www.w3.org/2000/svg">
<path d="M11.3299 0.500061C5.41281 0.500061 0.599609 5.21299 0.599609 11.003V26.003C0.599609 31.7915 5.41727 36.5001 11.3359 36.5001H26.6693C32.5864 36.5001 37.3996 31.7871 37.3996 25.9971V10.9971C37.3996 5.20863 32.5819 0.500061 26.6633 0.500061H11.3299ZM29.7329 6.50006C30.5793 6.50006 31.2663 7.17206 31.2663 8.00006C31.2663 8.82806 30.5793 9.50006 29.7329 9.50006C28.8865 9.50006 28.1996 8.82806 28.1996 8.00006C28.1996 7.17206 28.8865 6.50006 29.7329 6.50006ZM18.9996 9.50006C24.0734 9.50006 28.1996 13.5366 28.1996 18.5001C28.1996 23.4636 24.0734 27.5001 18.9996 27.5001C13.9258 27.5001 9.79961 23.4636 9.79961 18.5001C9.79961 13.5366 13.9258 9.50006 18.9996 9.50006ZM18.9996 12.5001C17.3729 12.5001 15.8129 13.1322 14.6627 14.2574C13.5125 15.3826 12.8663 16.9088 12.8663 18.5001C12.8663 20.0914 13.5125 21.6175 14.6627 22.7427C15.8129 23.8679 17.3729 24.5001 18.9996 24.5001C20.6263 24.5001 22.1863 23.8679 23.3365 22.7427C24.4868 21.6175 25.1329 20.0914 25.1329 18.5001C25.1329 16.9088 24.4868 15.3826 23.3365 14.2574C22.1863 13.1322 20.6263 12.5001 18.9996 12.5001Z" fill="black"/>
</svg>
