<svg width="34" height="34" viewBox="0 0 34 34" fill="none" xmlns="http://www.w3.org/2000/svg">
<path d="M30.8005 0.133301H3.20046C1.50612 0.133301 0.133789 1.50563 0.133789 3.19997V30.8C0.133789 32.4943 1.50612 33.8666 3.20046 33.8666H18.5338V20.0666H13.9338V15.4666H18.5338V12.9964C18.5338 8.31977 20.8123 6.26663 24.6993 6.26663C26.5608 6.26663 27.5452 6.40463 28.0113 6.4675V10.8666H25.3602C23.7103 10.8666 23.1338 11.7376 23.1338 13.5009V15.4666H27.9699L27.3137 20.0666H23.1338V33.8666H30.8005C32.4948 33.8666 33.8671 32.4943 33.8671 30.8V3.19997C33.8671 1.50563 32.4933 0.133301 30.8005 0.133301Z" fill="black"/>
</svg>
